<?xml version="1.0" standalone="no"?>
<!DOCTYPE svg PUBLIC "-//W3C//DTD SVG 20010904//EN"
 "http://www.w3.org/TR/2001/REC-SVG-20010904/DTD/svg10.dtd">
<svg version="1.0" xmlns="http://www.w3.org/2000/svg"
 width="148.000000pt" height="148.000000pt" viewBox="0 0 148.000000 148.000000"
 preserveAspectRatio="xMidYMid meet">

<g transform="translate(0.000000,148.000000) scale(0.100000,-0.100000)"
fill="#000000" stroke="none">
<path d="M685 1239 c-96 -7 -113 -14 -121 -46 -17 -68 19 -174 89 -258 27 -34
32 -36 38 -19 5 15 8 16 12 4 13 -42 23 -100 19 -105 -3 -3 -30 -5 -61 -4 -31
0 -50 3 -43 6 13 5 16 29 4 35 -16 6 -72 96 -93 149 -12 30 -22 79 -23 111 0
32 -4 58 -8 58 -4 0 -24 -14 -44 -32 -35 -31 -36 -34 -31 -84 6 -61 60 -171
113 -233 43 -49 149 -131 170 -131 7 0 16 11 20 25 8 33 20 32 32 -2 5 -16 25
-51 45 -80 l35 -52 -52 -22 c-31 -14 -78 -24 -121 -27 -67 -4 -69 -3 -47 13
l23 17 -45 29 c-107 71 -207 218 -237 349 l-12 55 -17 -50 c-15 -45 -16 -55
-3 -100 25 -85 133 -244 151 -220 4 6 18 -11 33 -41 l27 -52 -32 10 c-34 12
-76 38 -61 38 5 0 -5 15 -22 33 -17 17 -45 54 -62 81 -38 61 -41 44 -5 -26 51
-101 127 -171 234 -215 35 -14 71 -18 160 -18 110 0 118 2 182 33 89 43 156
110 199 197 32 65 34 76 34 170 0 88 -3 107 -27 158 -52 112 -135 187 -248
226 -72 24 -109 28 -205 20z"/>
<path d="M110 352 c0 -55 -7 -67 -27 -50 -15 12 -28 5 -18 -11 8 -15 38 -14
53 1 14 14 16 108 2 108 -5 0 -10 -22 -10 -48z"/>
<path d="M421 345 c-1 -59 0 -60 27 -62 32 -2 52 13 52 38 0 25 -29 51 -50 44
-14 -4 -20 0 -23 17 -2 13 -5 -4 -6 -37z m54 -21 c0 -32 -21 -39 -38 -12 -8
12 -7 21 3 32 19 24 35 14 35 -20z"/>
<path d="M175 359 c-4 -6 0 -9 10 -7 10 2 20 -2 22 -9 2 -6 -6 -13 -19 -15
-30 -4 -32 -42 -3 -45 11 -2 14 0 8 3 -20 9 -15 34 7 34 12 0 17 -5 14 -14 -3
-8 -1 -17 5 -21 7 -4 11 8 11 33 0 27 -5 42 -16 46 -22 9 -32 7 -39 -5z"/>
<path d="M260 325 c0 -56 17 -59 22 -5 2 26 -1 41 -9 44 -9 4 -13 -7 -13 -39z"/>
<path d="M307 356 c4 -6 10 -26 14 -46 l7 -35 1 36 c1 22 7 39 15 42 20 8 26
-2 26 -40 0 -18 5 -33 10 -33 14 0 12 67 -2 77 -20 12 -78 11 -71 -1z"/>
<path d="M548 363 c-10 -3 -21 -16 -24 -30 -9 -34 16 -58 50 -49 21 5 26 12
26 36 0 31 -22 49 -52 43z m40 -47 c-4 -30 -42 -28 -46 3 -2 13 2 27 9 32 18
11 41 -10 37 -35z"/>
</g>
</svg>
